<?xml version="1.0" encoding="utf-8"?>
<!-- Generator: Adobe Illustrator 16.0.0, SVG Export Plug-In . SVG Version: 6.00 Build 0)  -->
<!DOCTYPE svg PUBLIC "-//W3C//DTD SVG 1.1//EN" "http://www.w3.org/Graphics/SVG/1.1/DTD/svg11.dtd">
<svg version="1.1" id="Layer_1" xmlns="http://www.w3.org/2000/svg" xmlns:xlink="http://www.w3.org/1999/xlink" x="0px" y="0px"
	 width="360.266px" height="2092.351px" viewBox="0 0 360.266 2092.351" enable-background="new 0 0 360.266 2092.351"
	 xml:space="preserve">
<polygon fill="#E4E5E6" points="359.592,5.879 360.26,2092.351 -0.535,1049.23 "/>
<path fill="#CCCDCE" d="M32.99,614.8c-0.69-0.198-1.408,0.203-1.606,0.893l-5.191,18.168c-0.199,0.689,0.203,1.407,0.892,1.606
	c0.689,0.198,1.408-0.203,1.606-0.893l5.191-18.168C34.081,615.717,33.679,615,32.99,614.8z M36.258,619.671
	c-0.507,0.507-0.507,1.33,0,1.837l3.622,3.626l-3.626,3.625c-0.507,0.507-0.507,1.33,0,1.837c0.507,0.508,1.331,0.508,1.837,0
	l4.542-4.542c0.507-0.507,0.507-1.33,0-1.837l-4.542-4.542c-0.507-0.507-1.33-0.507-1.837,0L36.258,619.671z M23.82,619.671
	c-0.507-0.507-1.33-0.507-1.837,0l-4.542,4.542c-0.507,0.507-0.507,1.33,0,1.837l4.542,4.542c0.507,0.507,1.33,0.507,1.837,0
	c0.507-0.507,0.507-1.33,0-1.837l-3.625-3.621l3.625-3.626C24.327,621.001,24.327,620.178,23.82,619.671L23.82,619.671z"/>
<path fill="#CCCDCE" d="M144.708,469.191c0-1.329,1.078-2.407,2.407-2.407h3.209c1.329,0,2.407,1.078,2.407,2.407v3.209
	c0,1.329-1.078,2.407-2.407,2.407h-0.401v2.006h7.623c1.549,0,2.808,1.259,2.808,2.808v1.604h0.401c1.329,0,2.407,1.079,2.407,2.408
	v3.209c0,1.329-1.078,2.407-2.407,2.407h-3.209c-1.329,0-2.407-1.078-2.407-2.407v-3.209c0-1.329,1.078-2.408,2.407-2.408h0.401
	v-1.604c0-0.221-0.181-0.4-0.401-0.4h-7.623v2.005h0.401c1.329,0,2.407,1.079,2.407,2.408v3.209c0,1.329-1.078,2.407-2.407,2.407
	h-3.209c-1.329,0-2.407-1.078-2.407-2.407v-3.209c0-1.329,1.078-2.408,2.407-2.408h0.401v-2.005h-7.623
	c-0.221,0-0.401,0.18-0.401,0.4v1.604h0.401c1.329,0,2.407,1.079,2.407,2.408v3.209c0,1.329-1.078,2.407-2.407,2.407h-3.209
	c-1.329,0-2.407-1.078-2.407-2.407v-3.209c0-1.329,1.078-2.408,2.407-2.408h0.401v-1.604c0-1.549,1.258-2.808,2.808-2.808h7.623
	v-2.006h-0.401c-1.329,0-2.407-1.078-2.407-2.407V469.191z"/>
</svg>
