<?xml version="1.0" encoding="utf-8"?>
<!-- Generator: Adobe Illustrator 16.0.0, SVG Export Plug-In . SVG Version: 6.00 Build 0)  -->
<!DOCTYPE svg PUBLIC "-//W3C//DTD SVG 1.1//EN" "http://www.w3.org/Graphics/SVG/1.1/DTD/svg11.dtd">
<svg version="1.1" id="Layer_1" xmlns="http://www.w3.org/2000/svg" xmlns:xlink="http://www.w3.org/1999/xlink" x="0px" y="0px"
	 width="360.266px" height="2827.368px" viewBox="0 0 360.266 2827.368" enable-background="new 0 0 360.266 2827.368"
	 xml:space="preserve">
<polygon fill="#E4E5E6" points="359.592,5.879 360.26,2272.35 16.465,1049.229 "/>
<g opacity="0.9">
	<path fill="#D6D6D6" d="M35.033-217.187c0.333,0.047,0.654,0.091,0.974,0.137c0.103-0.039,0.205-0.077,0.307-0.115
		c0.588-0.226,1.267-0.351,1.317-1.178c0.445-0.262,1.065-0.234,1.384-0.872c-0.169-0.216-0.354-0.449-0.497-0.631
		c-1.4-0.101-2.517,0.53-3.695,0.907c-0.066,0.021-0.088,0.183-0.131,0.279C34.366-218.067,34.718-217.642,35.033-217.187z"/>
	<path fill="#D6D6D6" d="M42.105-224.947c0.133-0.363,0.265-0.724,0.442-1.208c-0.313,0.119-0.545,0.206-0.776,0.294
		c-0.037,0.098-0.075,0.196-0.118,0.303c0.042-0.107,0.081-0.206,0.118-0.303c-0.306,0.114-0.611,0.229-0.918,0.343
		c-0.103,0.035-0.204,0.071-0.305,0.112c-0.377-0.075-0.688,0.038-0.923,0.343c-0.473,0.004-0.947,0.012-1.42,0.012
		c-0.432,0-0.854,0.007-1.077,0.561c0.264,0.396,0.63,0.495,1.076,0.315c0.522-0.211,1.021-0.336,1.467,0.148l-0.001-0.002
		c0.612-0.228,1.224-0.457,1.836-0.685C41.706-224.79,41.906-224.869,42.105-224.947z"/>
	<path fill="#D6D6D6" d="M36.123-224.056c-0.743-0.723-1.36-0.092-1.992,0c-0.602-0.005-1.203-0.012-1.805-0.019l0,0
		c-0.425-0.175-0.852-0.349-1.279-0.524l0.003,0.003c-0.354,0.24-0.72,0.468-1.062,0.727c-0.204,0.155-0.375,0.359-0.558,0.541
		l0.036,0.02c-0.018-0.01-0.036-0.02-0.036-0.02c-0.782,0.072-1.563,0.144-2.345,0.215c-0.032,0.524-0.174,1.079,0.506,1.495
		c0.682-0.228,1.435-0.478,2.188-0.729c0.348-0.023,0.695-0.046,1.042-0.07c0.899-0.094,1.798-0.188,2.698-0.282
		c0.916,0.231,1.622-0.271,2.324-0.714C36.012-223.52,36.04-223.85,36.123-224.056z"/>
	<polygon fill="#D6D6D6" points="7.495,-237.067 7.501,-237.063 7.498,-237.071 	"/>
	<path fill="#D6D6D6" d="M7.544-238.077c-0.403,0.375-0.16,0.693-0.046,1.006C7.782-237.373,8.024-237.678,7.544-238.077z"/>
	<path fill="#D6D6D6" d="M17.211-243.845c0.233,0.111,0.509,0.243,0.813,0.387c0.301-0.402,0.482-0.642,0.729-0.968
		c-0.24-0.188-0.423-0.327-0.603-0.468c-0.114-0.012-0.217,0.014-0.31,0.082c-0.193,0.019-0.385,0.035-0.597,0.054
		C17.232-244.46,17.226-244.25,17.211-243.845z"/>
</g>
</svg>
