<?xml version="1.0" encoding="utf-8"?>
<!-- Generator: Adobe Illustrator 16.0.0, SVG Export Plug-In . SVG Version: 6.00 Build 0)  -->
<!DOCTYPE svg PUBLIC "-//W3C//DTD SVG 1.1//EN" "http://www.w3.org/Graphics/SVG/1.1/DTD/svg11.dtd">
<svg version="1.1" id="Layer_1" xmlns="http://www.w3.org/2000/svg" xmlns:xlink="http://www.w3.org/1999/xlink" x="0px" y="0px"
	 width="152px" height="151px" viewBox="0 0 152 151" enable-background="new 0 0 152 151" xml:space="preserve">
<g>
	<path fill-rule="evenodd" clip-rule="evenodd" fill="#FFFFFF" d="M47.443,91.126c-0.278-3.75-1.524-6.32-4.385-7.852
		c-2.669-1.428-5.372-2.806-8.123-4.069c-4.369-2.005-9.011-0.41-11.189,3.864c-4.78,9.377-9.521,18.773-14.224,28.19
		c-2.368,4.741-0.875,9.296,3.764,11.739c2.326,1.227,4.67,2.423,7.041,3.56c4.961,2.38,9.389,0.958,11.883-3.926
		c4.752-9.302,9.444-18.637,14.098-27.988C46.931,93.389,47.184,91.951,47.443,91.126z M58.715,66.702
		c-1.029-0.499-2.094-0.996-3.141-1.526c-4.972-2.522-9.924-5.083-14.915-7.57c-3.588-1.789-7.333-0.607-8.965,2.734
		c-1.609,3.297-0.35,6.826,3.114,8.654c1.479,0.781,2.988,1.505,4.481,2.261c14.639,7.413,29.265,14.851,43.921,22.226
		c4.529,2.28,7.706,1.142,10.026-3.384c0.717-1.399,1.426-2.805,2.198-4.323c0.898,0.412,1.616,0.717,2.312,1.063
		c3.706,1.85,7.391,3.739,11.111,5.557c1.517,0.741,2.873,0.392,3.637-1.156c0.716-1.458,0.134-2.622-1.228-3.413
		c-0.481-0.282-0.987-0.521-1.483-0.771c-14.644-7.405-29.292-14.796-43.923-22.223C61.563,62.649,61.403,62.648,58.715,66.702z
		 M128.266,78.543c-5.418-4.246-6.6-9.027-3.054-13.036c1.305-1.476,3.478-2.564,5.438-2.998c3.649-0.809,6.3,1.373,8.474,4.216
		c2.282-2.437,4.408-4.698,6.524-6.968c0.488-0.524,0.976-1.057,1.407-1.626c2.401-3.174,1.803-6.825-1.655-8.759
		c-4.589-2.568-9.242-5.021-13.959-7.336c-4.18-2.054-8.372-0.561-10.495,3.586c-5.373,10.495-10.705,21.009-16.041,31.523
		c-1.174,2.313-0.861,3.927,1.426,5.233c3.245,1.853,6.6,3.539,10.002,5.085c1.781,0.811,3.9,1.023,5.347-0.623
		C123.98,84.223,126.033,81.384,128.266,78.543z M92.947,38.808c-1.061-1.201-1.999-2.809-3.393-3.717
		c-2.324-1.513-4.917-2.627-7.438-3.82c-3.007-1.422-5.432-0.597-6.963,2.42c-3.679,7.25-7.317,14.519-10.929,21.802
		c-1.595,3.216-0.846,5.489,2.281,7.155c2.25,1.201,4.522,2.368,6.806,3.503c3.383,1.682,5.754,0.873,7.468-2.509
		c3.568-7.04,7.142-14.079,10.684-21.13C91.957,41.529,92.29,40.466,92.947,38.808z M114.046,49.51
		c-0.965-1.161-1.803-2.77-3.125-3.631c-2.389-1.555-5.046-2.707-7.634-3.944c-2.852-1.363-5.428-0.537-6.853,2.261
		c-3.76,7.385-7.483,14.787-11.156,22.215c-1.46,2.955-0.561,5.491,2.363,7.004c2.335,1.208,4.698,2.364,7.069,3.5
		c3.119,1.498,5.609,0.674,7.17-2.391c3.647-7.174,7.28-14.356,10.886-21.551C113.22,52.064,113.48,51.06,114.046,49.51z
		 M67.106,12.833c-0.775,0.319-1.667,0.506-2.341,0.994c-2.634,1.906-2.207,5.347,0.954,6.956
		c15.768,8.025,31.559,16.003,47.357,23.969c2.587,1.305,4.813,0.648,5.914-1.58c1.089-2.203,0.27-4.306-2.371-5.645
		c-15.637-7.926-31.288-15.826-46.942-23.718C68.907,13.422,68.058,13.19,67.106,12.833z M64.511,22.174
		c-6.185,12.23-12.221,24.164-18.382,36.347c2.332,1.149,4.494,2.215,6.749,3.325c1.964-3.864,3.706-7.444,5.596-10.942
		c0.988-1.833,1.603-3.45-0.777-4.658c3.707-7.368,7.318-14.544,11.029-21.921C67.328,23.611,66.08,22.975,64.511,22.174z
		 M93.391,23.396c1.511-5.614,3.185-10.929,4.24-16.363c0.294-1.514-0.857-3.753-2.038-5.007c-2.167-2.305-5.768-1.258-6.669,1.758
		c-1.39,4.656-2.636,9.356-3.828,14.065c-0.138,0.549,0.271,1.618,0.74,1.871C88.201,21.003,90.671,22.098,93.391,23.396z
		 M131.617,77.359c3.674-0.015,6.653-3.029,6.649-6.717c-0.005-3.703-2.944-6.681-6.638-6.727c-3.724-0.048-6.905,3.129-6.843,6.837
		C124.85,74.348,127.977,77.375,131.617,77.359z M5.768,150.711c0.193,0.079,0.386,0.155,0.579,0.234
		c4.271-7.298,8.54-14.595,12.961-22.151c-2.416-1.227-4.574-2.324-7.053-3.582C10.039,133.921,7.904,142.317,5.768,150.711z
		 M38.967,72.831c-0.952,1.901-1.78,3.558-2.588,5.17c5.845,4.267,6.985,4.072,8.94-1.337c0.05-0.137,0.006-0.306,0.006-0.631
		C43.353,75.038,41.313,74.013,38.967,72.831z"/>
	<path fill-rule="evenodd" clip-rule="evenodd" fill="#FFFFFF" d="M47.443,91.126c-0.259,0.824-0.512,2.263-1.136,3.518
		c-4.654,9.351-9.346,18.687-14.098,27.988c-2.494,4.883-6.921,6.306-11.883,3.926c-2.37-1.137-4.714-2.333-7.041-3.56
		C8.647,120.556,7.154,116,9.522,111.26c4.704-9.417,9.444-18.813,14.224-28.19c2.178-4.274,6.82-5.869,11.189-3.864
		c2.75,1.263,5.453,2.641,8.123,4.069C45.919,84.807,47.165,87.377,47.443,91.126z"/>
	<path fill-rule="evenodd" clip-rule="evenodd" fill="#FFFFFF" d="M58.715,66.702c2.688-4.054,2.848-4.053,7.146-1.872
		c14.631,7.427,29.28,14.818,43.923,22.223c0.496,0.251,1.002,0.49,1.483,0.771c1.361,0.791,1.943,1.956,1.228,3.413
		c-0.764,1.548-2.12,1.896-3.637,1.156c-3.72-1.818-7.405-3.707-11.111-5.557c-0.696-0.347-1.414-0.651-2.312-1.063
		c-0.772,1.519-1.481,2.924-2.198,4.323c-2.32,4.525-5.497,5.664-10.026,3.384C68.555,86.105,53.928,78.667,39.29,71.254
		c-1.493-0.755-3.001-1.479-4.481-2.261c-3.464-1.828-4.724-5.356-3.114-8.654c1.632-3.341,5.377-4.522,8.965-2.734
		c4.99,2.487,9.942,5.048,14.915,7.57C56.622,65.706,57.686,66.203,58.715,66.702z"/>
	<path fill-rule="evenodd" clip-rule="evenodd" fill="#FFFFFF" d="M128.266,78.543c-2.232,2.841-4.285,5.68-6.587,8.299
		c-1.446,1.646-3.565,1.434-5.347,0.623c-3.402-1.546-6.757-3.233-10.002-5.085c-2.287-1.306-2.6-2.921-1.426-5.233
		c5.336-10.514,10.668-21.029,16.041-31.523c2.123-4.147,6.315-5.641,10.495-3.586c4.717,2.315,9.37,4.768,13.959,7.336
		c3.458,1.934,4.057,5.585,1.655,8.759c-0.432,0.57-0.919,1.102-1.407,1.626c-2.116,2.271-4.242,4.532-6.524,6.968
		c-2.174-2.843-4.824-5.024-8.474-4.216c-1.96,0.434-4.133,1.522-5.438,2.998C121.666,69.516,122.848,74.297,128.266,78.543z"/>
	<path fill-rule="evenodd" clip-rule="evenodd" fill="#FFFFFF" d="M92.947,38.808c-0.658,1.658-0.991,2.722-1.484,3.704
		c-3.542,7.052-7.116,14.091-10.684,21.13c-1.714,3.382-4.085,4.19-7.468,2.509c-2.284-1.135-4.556-2.302-6.806-3.503
		c-3.127-1.666-3.876-3.939-2.281-7.155c3.612-7.283,7.25-14.553,10.929-21.802c1.531-3.017,3.956-3.842,6.963-2.42
		c2.522,1.193,5.114,2.307,7.438,3.82C90.949,35.999,91.886,37.606,92.947,38.808z"/>
	<path fill-rule="evenodd" clip-rule="evenodd" fill="#FFFFFF" d="M114.046,49.51c-0.565,1.55-0.826,2.555-1.279,3.463
		c-3.606,7.194-7.239,14.377-10.886,21.551c-1.561,3.065-4.051,3.889-7.17,2.391c-2.371-1.136-4.734-2.292-7.069-3.5
		c-2.924-1.513-3.823-4.049-2.363-7.004c3.672-7.429,7.396-14.831,11.156-22.215c1.424-2.798,4.001-3.624,6.853-2.261
		c2.588,1.237,5.245,2.39,7.634,3.944C112.243,46.74,113.081,48.349,114.046,49.51z"/>
	<path fill-rule="evenodd" clip-rule="evenodd" fill="#FFFFFF" d="M67.106,12.833c0.951,0.356,1.801,0.588,2.571,0.977
		c15.654,7.892,31.305,15.792,46.942,23.718c2.641,1.339,3.46,3.442,2.371,5.645c-1.102,2.228-3.327,2.884-5.914,1.58
		c-15.798-7.966-31.589-15.944-47.357-23.969c-3.161-1.609-3.587-5.05-0.954-6.956C65.439,13.339,66.331,13.152,67.106,12.833z"/>
	<path fill-rule="evenodd" clip-rule="evenodd" fill="#FFFFFF" d="M64.511,22.174c1.569,0.801,2.816,1.437,4.214,2.151
		c-3.71,7.377-7.322,14.554-11.029,21.921c2.379,1.208,1.765,2.825,0.777,4.658c-1.89,3.498-3.631,7.078-5.596,10.942
		c-2.255-1.11-4.417-2.176-6.749-3.325C52.291,46.338,58.326,34.405,64.511,22.174z"/>
	<path fill-rule="evenodd" clip-rule="evenodd" fill="#FFFFFF" d="M93.391,23.396c-2.72-1.298-5.19-2.393-7.555-3.676
		c-0.468-0.253-0.877-1.322-0.74-1.871c1.192-4.709,2.438-9.41,3.828-14.065c0.901-3.016,4.502-4.063,6.669-1.758
		c1.18,1.254,2.332,3.493,2.038,5.007C96.576,12.467,94.902,17.782,93.391,23.396z"/>
	<path fill-rule="evenodd" clip-rule="evenodd" fill="#FFFFFF" d="M131.617,77.359c-3.641,0.016-6.768-3.011-6.831-6.607
		c-0.063-3.708,3.119-6.885,6.843-6.837c3.693,0.046,6.633,3.024,6.638,6.727C138.271,74.33,135.291,77.344,131.617,77.359z"/>
	<path fill-rule="evenodd" clip-rule="evenodd" fill="#FFFFFF" d="M5.768,150.711c2.136-8.395,4.271-16.79,6.487-25.499
		c2.479,1.258,4.637,2.355,7.053,3.582c-4.421,7.556-8.69,14.853-12.961,22.151C6.154,150.867,5.961,150.79,5.768,150.711z"/>
	<path fill-rule="evenodd" clip-rule="evenodd" fill="#FFFFFF" d="M38.967,72.831c2.347,1.182,4.386,2.207,6.358,3.202
		c0,0.325,0.043,0.494-0.006,0.631c-1.955,5.41-3.096,5.604-8.94,1.337C37.187,76.389,38.015,74.732,38.967,72.831z"/>
</g>
<line fill-rule="evenodd" clip-rule="evenodd" fill="#FFFFFF" x1="45.343" y1="61.847" x2="66.191" y2="17.183"/>
</svg>
