<svg xmlns="http://www.w3.org/2000/svg"  viewBox="0 0 100 100" width="100px" height="100px"><polygon fill="#ff8405" points="80,79 19.126,79 19.126,20 79.622,20"/><path fill="#4343bf" d="M81.949,82H16V17h67.052L81.949,82z M22,76h54.051l0.897-53H22V76z"/><path fill="#edf7f5" d="M50,61c-6.065,0-11-4.935-11-11s4.935-11,11-11s11,4.935,11,11S56.065,61,50,61z M50,43 c-3.859,0-7,3.141-7,7s3.141,7,7,7s7-3.141,7-7S53.859,43,50,43z"/><path fill="#edf7f5" d="M63,70H36c-4.411,0-8-3.589-8-8V37c0-4.411,3.589-8,8-8h27c4.411,0,8,3.589,8,8v25 C71,66.411,67.411,70,63,70z M36,33c-2.206,0-4,1.794-4,4v25c0,2.206,1.794,4,4,4h27c2.206,0,4-1.794,4-4V37c0-2.206-1.794-4-4-4 H36z"/><circle cx="61.5" cy="38.5" r="2.5" fill="#edf7f5"/><polygon fill="#3abcf8" points="86,86 22,86 22,76 76,76 76,23 86,23"/></svg>