<?xml version="1.0" encoding="utf-8"?>
<!-- Generator: Adobe Illustrator 16.0.0, SVG Export Plug-In . SVG Version: 6.00 Build 0)  -->
<!DOCTYPE svg PUBLIC "-//W3C//DTD SVG 1.1//EN" "http://www.w3.org/Graphics/SVG/1.1/DTD/svg11.dtd">
<svg version="1.1" id="Layer_1" xmlns="http://www.w3.org/2000/svg" xmlns:xlink="http://www.w3.org/1999/xlink" x="0px" y="0px"
	 width="612px" height="792px" viewBox="0 0 612 792" enable-background="new 0 0 612 792" xml:space="preserve">
<path fill="none" d="M219.938,147.375h172.125c5.26,0,9.563,4.303,9.563,9.563v47.813h-191.25v-47.813
	C210.375,151.678,214.678,147.375,219.938,147.375z M153,156.938v47.813H76.5c-42.194,0-76.5,34.306-76.5,76.5V396h229.5h153H612
	V281.25c0-42.194-34.306-76.5-76.5-76.5H459v-47.813C459,120.002,428.998,90,392.063,90H219.938C183.002,90,153,120.002,153,156.938
	z M612,434.25H382.5v38.25c0,21.157-17.093,38.25-38.25,38.25h-76.5c-21.157,0-38.25-17.093-38.25-38.25v-38.25H0v153
	c0,42.194,34.306,76.5,76.5,76.5h459c42.194,0,76.5-34.306,76.5-76.5V434.25z"/>
</svg>
